# xmcd
#
# Track frame offsets:
#	150
#	18530
#	38277
#	59162
#	74173
#	91241
#	107372
#	122784
#	142621
#	161382
#	179485
#	197064
#	213661
#	230307
#
# Disc length: 3296 seconds
#
# Revision: 0
# Processed by: cddbd v1.5.2PL0 Copyright (c) Steve Scherf et al.
# Submitted via: audiograbber 1.83.01
#
DISCID=bf0cde0e
DTITLE=JonesTM - HC200810
DYEAR=2008
DGENRE=Country
TTITLE0=Carrie Underwood - Last Name
TTITLE1=Allison Moorer - Dancing Barefoot
TTITLE2=McKinney, Mark - Bonfire [Radio Edit]
TTITLE3=Julio Iglesias, Jr. - The Way I Want You
TTITLE4=Garth Brooks - Midnight Sun [Single Version]
TTITLE5=Richie McDonald - I Turn To You [Album Version]
TTITLE6=Jimmy Wayne - Do You Believe Me Now [Radio Edit]
TTITLE7=Mary J. Blige - Stay Down [Main]
TTITLE8=Mary J. Blige - Hurt Again [Main]
TTITLE9=Livin' Out Loud - Lately
TTITLE10=Present Tense - Smiles [Album Version]
TTITLE11=Brian Culbertson - Always Remember
TTITLE12=Dwayne Kerr - Smooth [Radio Edit]
TTITLE13=Carol Duboc - Sexual Healing
EXTD=
EXTT0=
EXTT1=
EXTT2=
EXTT3=
EXTT4=
EXTT5=
EXTT6=
EXTT7=
EXTT8=
EXTT9=
EXTT10=
EXTT11=
EXTT12=
EXTT13=
PLAYORDER=
